<?xml version="1.0" encoding="UTF-8"?><svg id="Camada_1" xmlns="http://www.w3.org/2000/svg" viewBox="0 0 1201.8 561.44"><defs><style>.cls-1{fill:#c8252c;fill-rule:evenodd;}.cls-1,.cls-2{stroke-width:0px;}.cls-2{fill:#231f20;}</style></defs><path class="cls-1" d="m445.84,94.4l-60.94-35.18v58.26c21.12-5.97,41.49-13.72,60.94-23.08h0Zm-60.94,222.12v-73.51c15.78,16.02,32.97,30.69,51.43,43.82l-51.43,29.69h0Zm0-88.86v-99.16c21.78-5.97,43.06-13.85,63.63-23.61v177.5c-22.92-15.64-44.3-33.92-63.63-54.73Zm0-168.44L295.6,7.66c-1.23,13.21-3.13,26.31-5.7,39.25v84.71c32.87-.7,64.7-5.59,95-14.15v-58.26h0Zm0,69.28v99.16c-19.08-20.53-36.16-43.51-50.77-68.81-3.58-6.21-6.97-12.48-10.17-18.8,20.61-2.23,40.98-6.09,60.94-11.56h0Zm0,114.52c-15.29-15.53-29.26-32.33-41.78-50.26-5.47,8-10.68,16.27-15.61,24.8-16.74,29-29.21,59.29-37.62,90.15v63.66l95-54.85v-73.51h0Zm-95,29.84v-29.66c4.07.05,8.13.17,12.16.35-4.46,9.62-8.51,19.39-12.16,29.31Zm0-225.95c-3.79,19.18-9.03,38.01-15.66,56.37v28.36c2.47.05,4.94.07,7.42.07,2.75,0,5.5-.03,8.24-.09V46.91h0Zm0,196.29v29.66c-6.55,17.79-11.78,36.02-15.66,54.59v-84.13c3.58-.1,7.17-.15,10.78-.15,1.63,0,3.26.01,4.88.03h0Zm0,64.51c-6.36,23.34-10.38,47.01-12.16,70.69l12.16-7.02v-63.66h0Zm-15.66-240.09V6.55l11.34-6.55c-1.7,22.64-5.46,45.27-11.34,67.62Zm0,35.66c-3.41,9.46-7.2,18.79-11.34,27.97,3.77.18,7.55.31,11.34.39v-28.36h0Zm0-96.73v61.07c-8.4,31.92-21.14,63.26-38.44,93.22-4.36,7.55-8.94,14.89-13.73,22.03-12.34-17.53-26.07-33.98-41.08-49.21V60.38L274.24,6.55h0Zm0,236.77v84.13c-2.63,12.57-4.63,25.29-6,38.13l-87.24-50.37v-57.59c29.75-8.47,60.99-13.4,93.24-14.31h0Zm-93.24,3.28c19.7-5.44,39.81-9.32,60.16-11.6-2.93-5.73-6.03-11.42-9.28-17.05-14.63-25.35-31.76-48.37-50.88-68.92v97.58Zm0-186.21v73.28c-15.74-15.97-32.88-30.58-51.28-43.67l51.28-29.61h0Zm0,88.63c-19.3-20.75-40.64-39-63.52-54.61v175.9c20.53-9.79,41.78-17.71,63.52-23.71v-97.58h0Zm0,108.61v57.59l-60.16-34.73c19.21-9.25,39.32-16.92,60.16-22.85Z"/><path class="cls-2" d="m670.8,54.67h3.34c3.1,0,6.24.07,9.37.32,22.76,1.38,40.79,20.27,40.79,43.37,0,16.73-9.46,31.25-23.33,38.51l28.61,41.81h-39.68l-19.1-28.72v-35.83h6.09c.71,0,1.3-.04,1.78-.12,7.36-.93,13.07-7.22,13.07-14.84s-6.19-14.43-14-14.93c-.26-.02-.54-.03-.84-.03h-6.09v-29.54Zm-55.3,0h55.3v29.54h-20.93v29.92h20.93v35.83l-5.88-8.84h-15.06v37.56h-34.37V54.67Z"/><polygon class="cls-2" points="737.5 54.67 830.23 54.67 830.23 83.9 771.52 83.9 771.52 102.68 830.23 102.68 830.23 129.78 771.52 129.78 771.52 149.45 830.23 149.45 830.23 178.68 737.5 178.68 737.5 54.67"/><path class="cls-2" d="m904.79,54.74c32.22,1.72,57.91,28.01,58.66,60.47.01.24.02.49.02.74v.35c0,.07,0,.13,0,.19v.16c0,33.13-25.98,60.2-58.68,61.94v-31.19c14.16-3.08,24.76-15.68,24.76-30.76s-10.6-27.68-24.76-30.75v-31.16Zm-59.13-.09h55.78c1.13,0,2.25.03,3.36.09v31.16c-2.16-.47-4.41-.72-6.72-.72-1.35,0-2.7-.06-4.05-.06h-14v63.07h14c1.35,0,2.7-.06,4.05-.06,2.31,0,4.55-.25,6.72-.72v31.19c-1.11.06-2.23.09-3.36.09-2.88,0-5.76,0-8.65,0l-47.13-.03V54.65Z"/><rect class="cls-2" x="971.14" y="54.67" width="34.55" height="124.01"/><polygon class="cls-2" points="665.6 199.4 697.74 199.4 748.89 265.12 748.89 199.4 782.99 199.4 782.99 323.72 752.8 323.72 699.69 255.53 699.69 323.72 665.6 323.72 665.6 199.4"/><rect class="cls-2" x="615.55" y="199.4" width="34.63" height="124.32"/><polygon class="cls-2" points="511.06 199.4 545.52 199.4 545.52 293.53 599.7 293.53 599.7 323.72 511.06 323.72 511.06 199.4"/><polygon class="cls-2" points="786.88 261.56 827.03 323.78 867.91 323.78 826.25 261.56 867.91 199.35 827.03 199.35 786.88 261.56"/><path class="cls-2" d="m599.7,54.65h-39.77c-33.77,0-61.25,26.97-62.01,60.56-.01.25-.02.49-.02.74v.35c0,.07,0,.13,0,.19,0,.06,0,.11,0,.16,0,34.26,27.78,62.04,62.04,62.04h39.77v-30.5h-32.36c-1.35,0-2.7-.06-4.06-.06-17.38,0-31.48-14.1-31.48-31.48s14.09-31.48,31.48-31.48c1.35,0,2.7-.06,4.06-.06h32.36v-30.47Z"/><path class="cls-2" d="m510.99,358.03h7.5v34.11h-7.5v-34.11Z"/><path class="cls-2" d="m526.19,358.03h6.92l15.98,21v-21h7.41v34.11h-6.38l-16.52-21.68v21.68h-7.4v-34.11Z"/><path class="cls-2" d="m563.86,358.03h25.97v6.82h-18.47v7.26h16.27v6.82h-16.27v13.2h-7.5v-34.11Z"/><path class="cls-2" d="m593.48,375.18v-.1c0-9.7,7.65-17.64,18.17-17.64s18.08,7.85,18.08,17.54v.1c0,9.7-7.65,17.64-18.17,17.64s-18.08-7.85-18.08-17.54Zm28.41,0v-.1c0-5.85-4.29-10.72-10.33-10.72s-10.23,4.77-10.23,10.62v.1c0,5.85,4.29,10.72,10.33,10.72s10.23-4.77,10.23-10.62Z"/><path class="cls-2" d="m635.57,358.03h15.59c4.34,0,7.7,1.22,9.94,3.46,1.9,1.9,2.92,4.58,2.92,7.8v.1c0,5.51-2.97,8.96-7.31,10.57l8.33,12.18h-8.77l-7.31-10.91h-5.89v10.91h-7.5v-34.11Zm15.1,16.57c3.65,0,5.75-1.95,5.75-4.82v-.1c0-3.22-2.24-4.87-5.9-4.87h-7.45v9.79h7.6Z"/><path class="cls-2" d="m669.97,358.03h8.09l8.96,14.42,8.96-14.42h8.09v34.11h-7.46v-22.27l-9.6,14.57h-.19l-9.5-14.42v22.12h-7.36v-34.11Z"/><path class="cls-2" d="m723.12,357.79h6.92l14.62,34.35h-7.85l-3.12-7.65h-14.42l-3.12,7.65h-7.65l14.62-34.35Zm7.89,20.07l-4.53-11.06-4.53,11.06h9.06Z"/><path class="cls-2" d="m756.99,397.98l3.9-5.75c-7.85-1.8-13.3-8.67-13.3-17.05v-.1c0-9.7,7.31-17.64,17.78-17.64,6.43,0,10.28,2.14,13.45,5.26l-4.78,5.51c-2.63-2.39-5.31-3.85-8.72-3.85-5.75,0-9.89,4.77-9.89,10.62v.1c0,5.85,4.04,10.72,9.89,10.72,3.9,0,6.28-1.56,8.96-3.99l4.77,4.82c-3.26,3.51-6.87,5.75-12.72,6.04l-3.17,7.89-6.19-2.58Z"/><path class="cls-2" d="m782.71,375.18v-.1c0-9.7,7.65-17.64,18.17-17.64s18.08,7.85,18.08,17.54v.1c0,9.7-7.65,17.64-18.17,17.64s-18.08-7.85-18.08-17.54Zm28.4,0v-.1c0-5.85-4.29-10.72-10.33-10.72s-10.23,4.77-10.23,10.62v.1c0,5.85,4.29,10.72,10.33,10.72s10.23-4.77,10.23-10.62Zm-20.32-20.56c1.12-4.09,2.63-6.73,6.04-6.73,3.02,0,5.56,1.9,7.31,1.9,1.51,0,2.1-.83,2.78-2.39l3.95,1.22c-1.12,4.09-2.63,6.72-6.04,6.72-3.02,0-5.55-1.9-7.31-1.9-1.51,0-2.1.83-2.78,2.39l-3.95-1.22Z"/><path class="cls-2" d="m824.8,358.03h25.73v6.68h-18.27v6.92h16.08v6.67h-16.08v7.16h18.52v6.68h-25.97v-34.11Z"/><path class="cls-2" d="m854.28,387.17l4.43-5.31c3.07,2.53,6.29,4.14,10.18,4.14,3.07,0,4.92-1.22,4.92-3.22v-.1c0-1.9-1.17-2.87-6.87-4.34-6.87-1.75-11.3-3.65-11.3-10.43v-.1c0-6.19,4.97-10.28,11.94-10.28,4.97,0,9.21,1.56,12.67,4.34l-3.9,5.65c-3.02-2.09-5.99-3.36-8.87-3.36s-4.38,1.32-4.38,2.97v.1c0,2.24,1.46,2.97,7.36,4.48,6.92,1.8,10.82,4.29,10.82,10.23v.1c0,6.77-5.17,10.57-12.52,10.57-5.16,0-10.38-1.8-14.47-5.46Z"/><path class="cls-2" d="m900.76,358.03h13.3c10.72,0,18.13,7.36,18.13,16.96v.1c0,9.6-7.41,17.05-18.13,17.05h-13.3v-34.11Zm13.3,27.33c6.14,0,10.28-4.14,10.28-10.18v-.1c0-6.04-4.14-10.28-10.28-10.28h-5.8v20.56h5.8Z"/><path class="cls-2" d="m938.03,358.03h25.73v6.68h-18.27v6.92h16.08v6.67h-16.08v7.16h18.52v6.68h-25.97v-34.11Z"/><path class="cls-2" d="m982.12,375.18v-.1c0-9.7,7.31-17.64,17.78-17.64,6.43,0,10.28,2.14,13.45,5.26l-4.78,5.51c-2.63-2.39-5.31-3.85-8.72-3.85-5.75,0-9.89,4.77-9.89,10.62v.1c0,5.85,4.04,10.72,9.89,10.72,3.9,0,6.28-1.56,8.96-3.99l4.77,4.82c-3.51,3.75-7.41,6.09-13.98,6.09-10.04,0-17.49-7.75-17.49-17.54Z"/><path class="cls-2" d="m1018.76,358.03h15.59c4.34,0,7.7,1.22,9.94,3.46,1.9,1.9,2.92,4.58,2.92,7.8v.1c0,5.51-2.97,8.96-7.31,10.57l8.33,12.18h-8.77l-7.31-10.91h-5.89v10.91h-7.5v-34.11Zm15.1,16.57c3.66,0,5.75-1.95,5.75-4.82v-.1c0-3.22-2.24-4.87-5.9-4.87h-7.45v9.79h7.6Z"/><path class="cls-2" d="m1053.15,358.03h25.73v6.68h-18.27v6.92h16.08v6.67h-16.08v7.16h18.52v6.68h-25.97v-34.11Zm14.28-11.3l6.38,2.78-6.24,5.85h-5.65l5.51-8.62Z"/><path class="cls-2" d="m1084.97,358.03h13.3c10.72,0,18.12,7.36,18.12,16.96v.1c0,9.6-7.41,17.05-18.12,17.05h-13.3v-34.11Zm13.3,27.33c6.14,0,10.28-4.14,10.28-10.18v-.1c0-6.04-4.14-10.28-10.28-10.28h-5.8v20.56h5.8Z"/><path class="cls-2" d="m1122.58,358.03h7.51v34.11h-7.51v-34.11Z"/><path class="cls-2" d="m1145.72,364.95h-10.38v-6.92h28.26v6.92h-10.38v27.19h-7.5v-27.19Z"/><path class="cls-2" d="m1165.56,375.18v-.1c0-9.7,7.65-17.64,18.17-17.64s18.08,7.85,18.08,17.54v.1c0,9.7-7.65,17.64-18.18,17.64s-18.07-7.85-18.07-17.54Zm28.4,0v-.1c0-5.85-4.29-10.72-10.33-10.72s-10.23,4.77-10.23,10.62v.1c0,5.85,4.29,10.72,10.33,10.72s10.23-4.77,10.23-10.62Z"/><path class="cls-2" d="m898.93,323.6c-17.1,0-31.02-13.92-31.02-31.02s13.92-31.02,31.02-31.02,31.02,13.92,31.02,31.02-13.92,31.02-31.02,31.02Zm0-55.38c-13.43,0-24.36,10.93-24.36,24.36s10.93,24.36,24.36,24.36,24.36-10.93,24.36-24.36-10.93-24.36-24.36-24.36Z"/><path class="cls-2" d="m889.65,280.1h11.03c3.07,0,5.45.86,7.03,2.45,1.35,1.35,2.07,3.24,2.07,5.52v.07c0,3.9-2.1,6.34-5.17,7.48l5.9,8.62h-6.21l-5.17-7.72h-4.17v7.72h-5.31v-24.14Zm10.69,11.72c2.59,0,4.07-1.38,4.07-3.41v-.07c0-2.28-1.59-3.45-4.17-3.45h-5.28v6.93h5.38Z"/></svg>